<svg width="131" height="65" viewBox="0 0 131 65" fill="none" xmlns="http://www.w3.org/2000/svg">
<path d="M58.4457 32.2626C58.388 31.6801 58.14 31.2276 57.7019 30.905C57.2638 30.5824 56.6692 30.4212 55.9182 30.4212C55.4079 30.4212 54.977 30.4934 54.6256 30.6378C54.2741 30.7774 54.0045 30.9724 53.8167 31.2228C53.6338 31.4731 53.5423 31.7571 53.5423 32.0749C53.5327 32.3397 53.5881 32.5708 53.7084 32.7682C53.8336 32.9655 54.0045 33.1365 54.2211 33.2809C54.4378 33.4205 54.6881 33.5433 54.9722 33.6492C55.2562 33.7503 55.5595 33.8369 55.8821 33.9092L57.2109 34.2269C57.856 34.3713 58.4481 34.5639 58.9873 34.8046C59.5265 35.0453 59.9935 35.3414 60.3883 35.6929C60.7831 36.0443 61.0888 36.4583 61.3054 36.935C61.5269 37.4116 61.64 37.958 61.6449 38.5742C61.64 39.4793 61.409 40.2641 60.9516 40.9285C60.499 41.588 59.8443 42.1007 58.9873 42.4666C58.1352 42.8277 57.1073 43.0083 55.9038 43.0083C54.7098 43.0083 53.6699 42.8253 52.7841 42.4594C51.903 42.0935 51.2146 41.5519 50.7187 40.8346C50.2277 40.1124 49.9701 39.2194 49.946 38.1554H52.9718C53.0055 38.6513 53.1476 39.0653 53.3979 39.3975C53.6531 39.7249 53.9925 39.9728 54.4161 40.1413C54.8446 40.305 55.3284 40.3868 55.8677 40.3868C56.3972 40.3868 56.857 40.3098 57.247 40.1558C57.6417 40.0017 57.9474 39.7875 58.1641 39.513C58.3807 39.2386 58.4891 38.9233 58.4891 38.567C58.4891 38.2348 58.3904 37.9556 58.193 37.7293C58.0004 37.5031 57.7164 37.3105 57.3408 37.1516C56.9701 36.9927 56.5152 36.8483 55.976 36.7183L54.3656 36.3139C53.1187 36.0106 52.1341 35.5364 51.412 34.8913C50.6898 34.2462 50.3312 33.3772 50.336 32.2843C50.3312 31.3888 50.5695 30.6065 51.0509 29.9373C51.5372 29.2681 52.2039 28.7458 53.0513 28.3703C53.8986 27.9947 54.8615 27.807 55.9399 27.807C57.0375 27.807 57.9956 27.9947 58.814 28.3703C59.6373 28.7458 60.2776 29.2681 60.7349 29.9373C61.1923 30.6065 61.4282 31.3816 61.4427 32.2626H58.4457ZM63.7481 42.7988V28.0092H66.875V34.5302H67.07L72.3923 28.0092H76.1402L70.6519 34.6313L76.2052 42.7988H72.4645L68.4132 36.7183L66.875 38.5959V42.7988H63.7481ZM77.7687 42.7988V28.0092H83.6037C84.7206 28.0092 85.6738 28.209 86.4634 28.6086C87.2577 29.0033 87.8619 29.5642 88.276 30.2912C88.6948 31.0133 88.9042 31.8631 88.9042 32.8404C88.9042 33.8225 88.6924 34.6674 88.2687 35.3751C87.8451 36.078 87.2313 36.6172 86.4273 36.9927C85.6281 37.3683 84.6604 37.556 83.5242 37.556H79.6174V35.0429H83.0187C83.6157 35.0429 84.1116 34.9611 84.5063 34.7974C84.9011 34.6337 85.1948 34.3882 85.3874 34.0608C85.5848 33.7334 85.6834 33.3266 85.6834 32.8404C85.6834 32.3493 85.5848 31.9353 85.3874 31.5983C85.1948 31.2613 84.8987 31.0061 84.4991 30.8328C84.1043 30.6547 83.6061 30.5656 83.0043 30.5656H80.8956V42.7988H77.7687ZM85.7557 36.0684L89.4314 42.7988H85.9795L82.3832 36.0684H85.7557ZM94.2409 28.0092V42.7988H91.114V28.0092H94.2409ZM96.8136 28.0092H100.67L104.743 37.946H104.916L108.989 28.0092H112.845V42.7988H109.812V33.1726H109.69L105.862 42.7266H103.797L99.9694 33.1365H99.8466V42.7988H96.8136V28.0092ZM117.971 42.7988H114.62L119.726 28.0092H123.755L128.854 42.7988H125.503L121.798 31.3888H121.683L117.971 42.7988ZM117.761 36.9855H125.676V39.4264H117.761V36.9855Z" fill="white"/>
<path d="M35.0225 50.0248C42.2916 50.0248 48.1844 44.1321 48.1844 36.8629C48.1844 29.5938 42.2916 23.701 35.0225 23.701C27.7534 23.701 21.8606 29.5938 21.8606 36.8629C21.8606 44.1321 27.7534 50.0248 35.0225 50.0248Z" fill="white"/>
<path d="M29.1931 17.8344C32.2869 17.8344 34.795 15.3264 34.795 12.2326C34.795 9.13876 32.2869 6.63074 29.1931 6.63074C26.0993 6.63074 23.5913 9.13876 23.5913 12.2326C23.5913 15.3264 26.0993 17.8344 29.1931 17.8344Z" fill="white"/>
<path d="M45.9183 52.4889C47.4386 52.4889 48.6711 51.2564 48.6711 49.7361C48.6711 48.2158 47.4386 46.9833 45.9183 46.9833C44.398 46.9833 43.1655 48.2158 43.1655 49.7361C43.1655 51.2564 44.398 52.4889 45.9183 52.4889Z" fill="white"/>
<path d="M22.4249 30.101C26.9098 30.101 30.5455 26.4653 30.5455 21.9804C30.5455 17.4956 26.9098 13.8599 22.4249 13.8599C17.9401 13.8599 14.3044 17.4956 14.3044 21.9804C14.3044 26.4653 17.9401 30.101 22.4249 30.101Z" fill="white"/>
</svg>
