<svg width="35" height="46" viewBox="0 0 35 46" fill="none" xmlns="http://www.w3.org/2000/svg">
<path d="M20.7181 43.3941C27.9872 43.3941 33.88 37.5014 33.88 30.2322C33.88 22.9631 27.9872 17.0703 20.7181 17.0703C13.449 17.0703 7.55621 22.9631 7.55621 30.2322C7.55621 37.5014 13.449 43.3941 20.7181 43.3941Z" fill="#2BA02D"/>
<path d="M14.8887 11.2037C17.9825 11.2037 20.4906 8.69566 20.4906 5.60186C20.4906 2.50802 17.9825 0 14.8887 0C11.7949 0 9.28693 2.50802 9.28693 5.60186C9.28693 8.69566 11.7949 11.2037 14.8887 11.2037Z" fill="#88DE87"/>
<path d="M31.6139 45.8581C33.1342 45.8581 34.3667 44.6256 34.3667 43.1053C34.3667 41.585 33.1342 40.3525 31.6139 40.3525C30.0936 40.3525 28.8611 41.585 28.8611 43.1053C28.8611 44.6256 30.0936 45.8581 31.6139 45.8581Z" fill="#88DE87"/>
<path d="M8.1205 23.4703C12.6054 23.4703 16.2411 19.8346 16.2411 15.3497C16.2411 10.8649 12.6054 7.22919 8.1205 7.22919C3.6357 7.22919 0 10.8649 0 15.3497C0 19.8346 3.6357 23.4703 8.1205 23.4703Z" fill="#2BA02D"/>
</svg>
